<svg width="32" height="32" viewBox="0 0 32 32" fill="none" xmlns="http://www.w3.org/2000/svg">
    <path fill-rule="evenodd" clip-rule="evenodd" d="M16.25 5C14.1768 5 12.8208 5.92686 12.0153 7.15002C11.4093 8.0703 11.131 9.12913 11.0379 10.0306C9.03813 10.6041 7.7779 12.0294 7.03034 13.3886C6.29283 14.7295 6 16.1028 6 16.75V16.7578V16.7657V16.7736V16.7816V16.7896V16.7976V16.8057V16.8138V16.822V16.8302V16.8384V16.8467V16.8551V16.8634V16.8718V16.8803V16.8888V16.8973V16.9059V16.9145V16.9231V16.9318V16.9405V16.9493V16.9581V16.9669V16.9758V16.9847V16.9937V17.0027V17.0117V17.0208V17.0299V17.039V17.0482V17.0574V17.0667V17.0759V17.0853V17.0946V17.104V17.1135V17.123V17.1325V17.142V17.1516V17.1612V17.1709V17.1806V17.1903V17.2V17.2098V17.2197V17.2295V17.2394V17.2494V17.2593V17.2693V17.2794V17.2895V17.2996V17.3097V17.3199V17.3301V17.3403V17.3506V17.3609V17.3712V17.3816V17.392V17.4025V17.4129V17.4234V17.434V17.4445V17.4551V17.4658V17.4764V17.4871V17.4978V17.5086V17.5194V17.5302V17.541V17.5519V17.5628V17.5738V17.5847V17.5957V17.6068V17.6178V17.6289V17.64V17.6512V17.6624V17.6736V17.6848V17.6961V17.7074V17.7187V17.7301V17.7414V17.7528V17.7643V17.7758V17.7872V17.7988V17.8103V17.8219V17.8335V17.8451V17.8568V17.8685V17.8802V17.8919V17.9037V17.9155V17.9273V17.9391V17.951V17.9629V17.9748V17.9868V17.9987V18.0107V18.0228V18.0348V18.0469V18.059V18.0711V18.0832V18.0954V18.1076V18.1198V18.1321V18.1443V18.1566V18.1689V18.1813V18.1936V18.206V18.2184V18.2309V18.2433V18.2558V18.2683V18.2808V18.2934V18.3059V18.3185V18.3311V18.3437V18.3564V18.3691V18.3818V18.3945V18.4072V18.42V18.4328V18.4456V18.4584V18.4712V18.4841V18.497V18.5099V18.5228V18.5357V18.5487V18.5617V18.5747V18.5877V18.6007V18.6138V18.6268V18.6399V18.653V18.6662V18.6793V18.6925V18.7057V18.7189V18.7321V18.7453V18.7586V18.7719V18.7851V18.7985V18.8118V18.8251V18.8385V18.8518V18.8652V18.8786V18.8921V18.9055V18.919V18.9324V18.9459V18.9594V18.9729V18.9864V19V19.0136V19.0271V19.0407V19.0543V19.0679V19.0816V19.0952V19.1089V19.1226V19.1362V19.1499V19.1637V19.1774V19.1911V19.2049V19.2186V19.2324V19.2462V19.26V19.2738V19.2877V19.3015V19.3154V19.3292V19.3431V19.357V19.3709V19.3848V19.3987V19.4127V19.4266V19.4406V19.4545V19.4685V19.4825V19.4965V19.5105V19.5245V19.5385V19.5526V19.5666V19.5807V19.5947V19.6088V19.6229V19.637V19.6511V19.6652V19.6793V19.6934V19.7076V19.7217V19.7358V19.75V19.7642V19.7783V19.7925V19.8067V19.8209V19.8351V19.8493V19.8635V19.8777V19.892V19.9062V19.9204V19.9347V19.9489V19.9632V19.9774V19.9917V20.006V20.0203V20.0346V20.0488V20.0631V20.0774V20.0917V20.106V20.1203V20.1347V20.149V20.1633V20.1776V20.192V20.2063V20.2206V20.235V20.2493V20.2637V20.278V20.2924V20.3067V20.3211V20.3354V20.3498V20.3642V20.3785V20.3929V20.4073V20.4216V20.436V20.4504V20.4648V20.4791V20.4935V20.5079V20.5223V20.5366V20.551V20.5654V20.5798V20.5941V20.6085V20.6229V20.6373V20.6516V20.666V20.6804V20.6948V20.7091V20.7235V20.7379V20.7522V20.7666V20.781V20.7953V20.8097V20.824V20.8384V20.8527V20.8671V20.8814V20.8958V20.9101V20.9245V20.9388V20.9531V20.9674V20.9818V20.9961V21.0104V21.0247V21.039V21.0533V21.0676V21.0819V21.0962V21.1105V21.1248V21.139V21.1533V21.1676V21.1818V21.1961V21.2103V21.2245V21.2388V21.253V21.2672V21.2814V21.2956V21.3098V21.324V21.3382V21.3524V21.3666V21.3807V21.3949V21.409V21.4232V21.4373V21.4514V21.4655V21.4796V21.4937V21.5078V21.5219V21.536V21.55V21.5641V21.5781V21.5922V21.6062V21.6202V21.6342V21.6482V21.6622V21.6762V21.6901V21.7041V21.718V21.7319V21.7459V21.7598V21.7737V21.7875V21.8014V21.8153V21.8291V21.843V21.8568V21.8706V21.8844V21.8982V21.912V21.9257V21.9395V21.9532V21.967V21.9807V21.9944V22.0081V22.0217V22.0354V22.049V22.0627V22.0763V22.0899V22.1035V22.117V22.1306V22.1441V22.1577V22.1712V22.1847V22.1981V22.2116V22.2251V22.2385V22.2519V22.2653V22.2787V22.2921V22.3054V22.3188V22.3321V22.3454V22.3587V22.3719V22.3852V22.3984V22.4116V22.4248V22.438V22.4512V22.4643V22.4774V22.4905V22.5036V22.5167V22.5298V22.5428V22.5558V22.5688V22.5818V22.5947V22.6077V22.6206V22.6335V22.6464V22.6592V22.672V22.6849V22.6977V22.7104V22.7232V22.7359V22.7486V22.7613V22.774V22.7866V22.7993V22.8119V22.8244V22.837V22.8495V22.8621V22.8746V22.887V22.8995V22.9119V22.9243V22.9367V22.949V22.9614V22.9737V22.986V22.9982V23.0105V23.0227V23.0349V23.047V23.0592V23.0713V23.0834V23.0954V23.1075V23.1195V23.1315V23.1435V23.1554V23.1673V23.1792V23.1911V23.2029V23.2147V23.2265V23.2383V23.25C6 24.5913 6.79733 25.5035 7.65062 26.0643C8.49422 26.6186 9.48122 26.8978 10.1439 26.9925L10.176 26.997L10.2084 26.9988C11.7168 27.0826 14.1278 27.1831 16.4656 27.2124C18.779 27.2415 21.0963 27.2026 22.3733 26.9898C23.6533 26.7765 24.6807 26.3626 25.399 25.7224C26.1399 25.062 26.5 24.2053 26.5 23.25V23.2441V23.2382V23.2322V23.2263V23.2202V23.2141V23.208V23.2019V23.1957V23.1895V23.1832V23.1769V23.1706V23.1642V23.1578V23.1513V23.1448V23.1383V23.1317V23.1251V23.1185V23.1118V23.1051V23.0983V23.0915V23.0847V23.0778V23.0709V23.064V23.057V23.05V23.043V23.0359V23.0288V23.0216V23.0144V23.0072V22.9999V22.9926V22.9853V22.9779V22.9705V22.963V22.9555V22.948V22.9405V22.9329V22.9252V22.9176V22.9099V22.9022V22.8944V22.8866V22.8787V22.8709V22.863V22.855V22.847V22.839V22.831V22.8229V22.8148V22.8066V22.7984V22.7902V22.782V22.7737V22.7654V22.757V22.7486V22.7402V22.7317V22.7232V22.7147V22.7061V22.6975V22.6889V22.6803V22.6716V22.6628V22.6541V22.6453V22.6365V22.6276V22.6187V22.6098V22.6008V22.5918V22.5828V22.5738V22.5647V22.5556V22.5464V22.5372V22.528V22.5187V22.5095V22.5002V22.4908V22.4814V22.472V22.4626V22.4531V22.4436V22.4341V22.4245V22.4149V22.4053V22.3956V22.3859V22.3762V22.3665V22.3567V22.3469V22.337V22.3271V22.3172V22.3073V22.2973V22.2873V22.2773V22.2672V22.2571V22.247V22.2369V22.2267V22.2165V22.2062V22.196V22.1857V22.1754V22.165V22.1546V22.1442V22.1337V22.1233V22.1128V22.1022V22.0917V22.0811V22.0705V22.0598V22.0491V22.0384V22.0277V22.0169V22.0061V21.9953V21.9845V21.9736V21.9627V21.9518V21.9408V21.9298V21.9188V21.9077V21.8967V21.8856V21.8744V21.8633V21.8521V21.8409V21.8297V21.8184V21.8071V21.7958V21.7844V21.7731V21.7617V21.7502V21.7388V21.7273V21.7158V21.7043V21.6927V21.6811V21.6695V21.6579V21.6462V21.6345V21.6228V21.611V21.5993V21.5875V21.5756V21.5638V21.5519V21.54V21.5281V21.5162V21.5042V21.4922V21.4802V21.4681V21.456V21.4439V21.4318V21.4197V21.4075V21.3953V21.3831V21.3708V21.3586V21.3463V21.3339V21.3216V21.3092V21.2968V21.2844V21.272V21.2595V21.247V21.2345V21.222V21.2094V21.1968V21.1842V21.1716V21.1589V21.1463V21.1336V21.1208V21.1081V21.0953V21.0825V21.0697V21.0569V21.044V21.0311V21.0182V21.0053V20.9923V20.9794V20.9664V20.9534V20.9403V20.9273V20.9142V20.9011V20.8879V20.8748V20.8616V20.8484V20.8352V20.822V20.8087V20.7954V20.7821V20.7688V20.7555V20.7421V20.7287V20.7153V20.7019V20.6885V20.675V20.6615V20.648V20.6345V20.6209V20.6074V20.5938V20.5802V20.5665V20.5529V20.5392V20.5255V20.5118V20.4981V20.4843V20.4706V20.4568V20.443V20.4292V20.4153V20.4014V20.3876V20.3737V20.3597V20.3458V20.3318V20.3179V20.3039V20.2898V20.2758V20.2618V20.2477V20.2336V20.2195V20.2054V20.1912V20.1771V20.1629V20.1487V20.1345V20.1202V20.106V20.0917V20.0774V20.0631V20.0488V20.0344V20.0201V20.0057V19.9913V19.9769V19.9625V19.948V19.9336V19.9191V19.9046V19.8901V19.8756V19.861V19.8465V19.8319V19.8173V19.8027V19.7881V19.7734V19.7588V19.7441V19.7294V19.7147V19.7V19.6853V19.6705V19.6557V19.641V19.6262V19.6114V19.5965V19.5817V19.5668V19.5519V19.5371V19.5222V19.5072V19.4923V19.4774V19.4624V19.4474V19.4324V19.4174V19.4024V19.3874V19.3723V19.3573V19.3422V19.3271V19.312V19.2969V19.2817V19.2666V19.2514V19.2363V19.2211V19.2059V19.1907V19.1754V19.1602V19.145V19.1297V19.1144V19.0991V19.0838V19.0685V19.0532V19.0378V19.0225V19.0071V18.9917V18.9763V18.9609V18.9455V18.9301V18.9147V18.8992V18.8837V18.8683V18.8528V18.8373V18.8218V18.8062V18.7907V18.7752V18.7596V18.7441V18.7285V18.7129V18.6973V18.6817V18.666V18.6504V18.6348V18.6191V18.6035V18.5878V18.5721V18.5564V18.5407V18.525V18.5092V18.4935V18.4778V18.462V18.4462V18.4305V18.4147V18.3989V18.3831V18.3673V18.3514V18.3356V18.3198V18.3039V18.288V18.2722V18.2563V18.2404V18.2245V18.2086V18.1927V18.1768V18.1608V18.1449V18.1289V18.113V18.097V18.081V18.0651V18.0491V18.0331V18.0171V18.0011V17.985V17.969V17.953V17.9369V17.9209V17.9048V17.8887V17.8727V17.8566V17.8405V17.8244V17.8083V17.7922V17.7761V17.7599V17.7438V17.7277V17.7115V17.6954V17.6792V17.6631V17.6469V17.6307V17.6145V17.5984V17.5822V17.566V17.5498V17.5335V17.5173V17.5011V17.4849V17.4686V17.4524V17.4362V17.4199V17.4037V17.3874V17.3711V17.3549V17.3386V17.3223V17.306V17.2897V17.2734V17.2571V17.2408V17.2245V17.2082V17.1919V17.1756V17.1593V17.1429V17.1266V17.1103V17.0939V17.0776V17.0612V17.0449V17.0285V17.0122V16.9958V16.9794V16.9631V16.9467V16.9303V16.9139V16.8976V16.8812V16.8648V16.8484V16.832V16.8156V16.7992V16.7828V16.7664V16.75C26.5 13.5577 24.2245 11.132 21.5285 10.0536L21.3944 10H21.25H21.0155C20.9748 9.19163 20.7669 8.20904 20.2824 7.32656C19.5861 6.05832 18.3106 5 16.25 5ZM20.241 11.5C20.2476 11.5001 20.2543 11.5001 20.2609 11.5H21.1021C23.3404 12.4431 25 14.388 25 16.75V16.7664V16.7828V16.7992V16.8156V16.832V16.8484V16.8648V16.8812V16.8976V16.9139V16.9303V16.9467V16.9631V16.9794V16.9958V17.0122V17.0285V17.0449V17.0612V17.0776V17.0939V17.1103V17.1266V17.1429V17.1593V17.1756V17.1919V17.2082V17.2245V17.2408V17.2571V17.2734V17.2897V17.306V17.3223V17.3386V17.3549V17.3711V17.3874V17.4037V17.4199V17.4362V17.4524V17.4686V17.4849V17.5011V17.5173V17.5335V17.5498V17.566V17.5822V17.5984V17.6145V17.6307V17.6469V17.6631V17.6792V17.6954V17.7115V17.7277V17.7438V17.7599V17.7761V17.7922V17.8083V17.8244V17.8405V17.8566V17.8727V17.8887V17.9048V17.9209V17.9369V17.953V17.969V17.985V18.0011V18.0171V18.0331V18.0491V18.0651V18.081V18.097V18.113V18.1289V18.1449V18.1608V18.1768V18.1927V18.2086V18.2245V18.2404V18.2563V18.2722V18.288V18.3039V18.3198V18.3356V18.3514V18.3673V18.3831V18.3989V18.4147V18.4305V18.4462V18.462V18.4778V18.4935V18.5092V18.525V18.5407V18.5564V18.5721V18.5878V18.6035V18.6191V18.6348V18.6504V18.666V18.6817V18.6973V18.7129V18.7285V18.7441V18.7596V18.7752V18.7907V18.8062V18.8218V18.8373V18.8528V18.8683V18.8837V18.8992V18.9147V18.9301V18.9455V18.9609V18.9763V18.9917V19.0071V19.0225V19.0378V19.0532V19.0685V19.0838V19.0991V19.1144V19.1297V19.145V19.1602V19.1754V19.1907V19.2059V19.2211V19.2363V19.2514V19.2666V19.2817V19.2969V19.312V19.3271V19.3422V19.3573V19.3723V19.3874V19.4024V19.4174V19.4324V19.4474V19.4624V19.4774V19.4923V19.5072V19.5222V19.5371V19.5519V19.5668V19.5817V19.5965V19.6114V19.6262V19.641V19.6557V19.6705V19.6853V19.7V19.7147V19.7294V19.7441V19.7588V19.7734V19.7881V19.8027V19.8173V19.8319V19.8465V19.861V19.8756V19.8901V19.9046V19.9191V19.9336V19.948V19.9625V19.9769V19.9913V20.0057V20.0201V20.0344V20.0488V20.0631V20.0774V20.0917V20.106V20.1202V20.1345V20.1487V20.1629V20.1771V20.1912V20.2054V20.2195V20.2336V20.2477V20.2618V20.2758V20.2898V20.3039V20.3179V20.3318V20.3458V20.3597V20.3737V20.3876V20.4014V20.4153V20.4292V20.443V20.4568V20.4706V20.4843V20.4981V20.5118V20.5255V20.5392V20.5529V20.5665V20.5802V20.5938V20.6074V20.6209V20.6345V20.648V20.6615V20.675V20.6885V20.7019V20.7153V20.7287V20.7421V20.7555V20.7688V20.7821V20.7954V20.8087V20.822V20.8352V20.8484V20.8616V20.8748V20.8879V20.9011V20.9142V20.9273V20.9403V20.9534V20.9664V20.9794V20.9923V21.0053V21.0182V21.0311V21.044V21.0569V21.0697V21.0825V21.0953V21.1081V21.1208V21.1336V21.1463V21.1589V21.1716V21.1842V21.1968V21.2094V21.222V21.2345V21.247V21.2595V21.272V21.2844V21.2968V21.3092V21.3216V21.3339V21.3463V21.3586V21.3708V21.3831V21.3953V21.4075V21.4197V21.4318V21.4439V21.456V21.4681V21.4802V21.4922V21.5042V21.5162V21.5281V21.54V21.5519V21.5638V21.5756V21.5875V21.5993V21.611V21.6228V21.6345V21.6462V21.6579V21.6695V21.6811V21.6927V21.7043V21.7158V21.7273V21.7388V21.7502V21.7617V21.7731V21.7844V21.7958V21.8071V21.8184V21.8297V21.8409V21.8521V21.8633V21.8744V21.8856V21.8967V21.9077V21.9188V21.9298V21.9408V21.9518V21.9627V21.9736V21.9845V21.9953V22.0061V22.0169V22.0277V22.0384V22.0491V22.0598V22.0705V22.0811V22.0917V22.1022V22.1128V22.1233V22.1337V22.1442V22.1546V22.165V22.1754V22.1857V22.196V22.2062V22.2165V22.2267V22.2369V22.247V22.2571V22.2672V22.2773V22.2873V22.2973V22.3073V22.3172V22.3271V22.337V22.3469V22.3567V22.3665V22.3762V22.3859V22.3956V22.4053V22.4149V22.4245V22.4341V22.4436V22.4531V22.4626V22.472V22.4814V22.4908V22.5002V22.5095V22.5187V22.528V22.5372V22.5464V22.5556V22.5647V22.5738V22.5828V22.5918V22.6008V22.6098V22.6187V22.6276V22.6365V22.6453V22.6541V22.6628V22.6716V22.6803V22.6889V22.6975V22.7061V22.7147V22.7232V22.7317V22.7402V22.7486V22.757V22.7654V22.7737V22.782V22.7902V22.7984V22.8066V22.8148V22.8229V22.831V22.839V22.847V22.855V22.863V22.8709V22.8787V22.8866V22.8944V22.9022V22.9099V22.9176V22.9252V22.9329V22.9405V22.948V22.9555V22.963V22.9705V22.9779V22.9853V22.9926V22.9999V23.0072V23.0144V23.0216V23.0288V23.0359V23.043V23.05V23.057V23.064V23.0709V23.0778V23.0847V23.0915V23.0983V23.1051V23.1118V23.1185V23.1251V23.1317V23.1383V23.1448V23.1513V23.1578V23.1642V23.1706V23.1769V23.1832V23.1895V23.1957V23.2019V23.208V23.2141V23.2202V23.2263V23.2322V23.2382V23.2441V23.25C25 23.7947 24.8101 24.238 24.401 24.6026C23.9693 24.9874 23.2467 25.3235 22.1267 25.5102C21.0037 25.6974 18.821 25.7419 16.4844 25.7126C14.1896 25.6838 11.8192 25.5855 10.3255 25.503C9.82159 25.4266 9.0768 25.2066 8.47438 24.8107C7.86934 24.4131 7.5 23.9087 7.5 23.25V23.2383V23.2265V23.2147V23.2029V23.1911V23.1792V23.1673V23.1554V23.1435V23.1315V23.1195V23.1075V23.0954V23.0834V23.0713V23.0592V23.047V23.0349V23.0227V23.0105V22.9982V22.986V22.9737V22.9614V22.949V22.9367V22.9243V22.9119V22.8995V22.887V22.8746V22.8621V22.8495V22.837V22.8244V22.8119V22.7993V22.7866V22.774V22.7613V22.7486V22.7359V22.7232V22.7104V22.6977V22.6849V22.672V22.6592V22.6464V22.6335V22.6206V22.6077V22.5947V22.5818V22.5688V22.5558V22.5428V22.5298V22.5167V22.5036V22.4905V22.4774V22.4643V22.4512V22.438V22.4248V22.4116V22.3984V22.3852V22.3719V22.3587V22.3454V22.3321V22.3188V22.3054V22.2921V22.2787V22.2653V22.2519V22.2385V22.2251V22.2116V22.1981V22.1847V22.1712V22.1577V22.1441V22.1306V22.117V22.1035V22.0899V22.0763V22.0627V22.049V22.0354V22.0217V22.0081V21.9944V21.9807V21.967V21.9532V21.9395V21.9257V21.912V21.8982V21.8844V21.8706V21.8568V21.843V21.8291V21.8153V21.8014V21.7875V21.7737V21.7598V21.7459V21.7319V21.718V21.7041V21.6901V21.6762V21.6622V21.6482V21.6342V21.6202V21.6062V21.5922V21.5781V21.5641V21.55V21.536V21.5219V21.5078V21.4937V21.4796V21.4655V21.4514V21.4373V21.4232V21.409V21.3949V21.3807V21.3666V21.3524V21.3382V21.324V21.3098V21.2956V21.2814V21.2672V21.253V21.2388V21.2245V21.2103V21.1961V21.1818V21.1676V21.1533V21.139V21.1248V21.1105V21.0962V21.0819V21.0676V21.0533V21.039V21.0247V21.0104V20.9961V20.9818V20.9674V20.9531V20.9388V20.9245V20.9101V20.8958V20.8814V20.8671V20.8527V20.8384V20.824V20.8097V20.7953V20.781V20.7666V20.7522V20.7379V20.7235V20.7091V20.6948V20.6804V20.666V20.6516V20.6373V20.6229V20.6085V20.5941V20.5798V20.5654V20.551V20.5366V20.5223V20.5079V20.4935V20.4791V20.4648V20.4504V20.436V20.4216V20.4073V20.3929V20.3785V20.3642V20.3498V20.3354V20.3211V20.3067V20.2924V20.278V20.2637V20.2493V20.235V20.2206V20.2063V20.192V20.1776V20.1633V20.149V20.1347V20.1203V20.106V20.0917V20.0774V20.0631V20.0488V20.0346V20.0203V20.006V19.9917V19.9774V19.9632V19.9489V19.9347V19.9204V19.9062V19.892V19.8777V19.8635V19.8493V19.8351V19.8209V19.8067V19.7925V19.7783V19.7642V19.75V19.7358V19.7217V19.7076V19.6934V19.6793V19.6652V19.6511V19.637V19.6229V19.6088V19.5947V19.5807V19.5666V19.5526V19.5385V19.5245V19.5105V19.4965V19.4825V19.4685V19.4545V19.4406V19.4266V19.4127V19.3987V19.3848V19.3709V19.357V19.3431V19.3292V19.3154V19.3015V19.2877V19.2738V19.26V19.2462V19.2324V19.2186V19.2049V19.1911V19.1774V19.1637V19.1499V19.1362V19.1226V19.1089V19.0952V19.0816V19.0679V19.0543V19.0407V19.0271V19.0136V19V18.9864V18.9729V18.9594V18.9459V18.9324V18.919V18.9055V18.8921V18.8786V18.8652V18.8518V18.8385V18.8251V18.8118V18.7985V18.7851V18.7719V18.7586V18.7453V18.7321V18.7189V18.7057V18.6925V18.6793V18.6662V18.653V18.6399V18.6268V18.6138V18.6007V18.5877V18.5747V18.5617V18.5487V18.5357V18.5228V18.5099V18.497V18.4841V18.4712V18.4584V18.4456V18.4328V18.42V18.4072V18.3945V18.3818V18.3691V18.3564V18.3437V18.3311V18.3185V18.3059V18.2934V18.2808V18.2683V18.2558V18.2433V18.2309V18.2184V18.206V18.1936V18.1813V18.1689V18.1566V18.1443V18.1321V18.1198V18.1076V18.0954V18.0832V18.0711V18.059V18.0469V18.0348V18.0228V18.0107V17.9987V17.9868V17.9748V17.9629V17.951V17.9391V17.9273V17.9155V17.9037V17.8919V17.8802V17.8685V17.8568V17.8451V17.8335V17.8219V17.8103V17.7988V17.7872V17.7758V17.7643V17.7528V17.7414V17.7301V17.7187V17.7074V17.6961V17.6848V17.6736V17.6624V17.6512V17.64V17.6289V17.6178V17.6068V17.5957V17.5847V17.5738V17.5628V17.5519V17.541V17.5302V17.5194V17.5086V17.4978V17.4871V17.4764V17.4658V17.4551V17.4445V17.434V17.4234V17.4129V17.4025V17.392V17.3816V17.3712V17.3609V17.3506V17.3403V17.3301V17.3199V17.3097V17.2996V17.2895V17.2794V17.2693V17.2593V17.2494V17.2394V17.2295V17.2197V17.2098V17.2V17.1903V17.1806V17.1709V17.1612V17.1516V17.142V17.1325V17.123V17.1135V17.104V17.0946V17.0853V17.0759V17.0667V17.0574V17.0482V17.039V17.0299V17.0208V17.0117V17.0027V16.9937V16.9847V16.9758V16.9669V16.9581V16.9493V16.9405V16.9318V16.9231V16.9145V16.9059V16.8973V16.8888V16.8803V16.8718V16.8634V16.8551V16.8467V16.8384V16.8302V16.822V16.8138V16.8057V16.7976V16.7896V16.7816V16.7736V16.7657V16.7578V16.75C7.5 16.3972 7.70717 15.2705 8.34466 14.1114C8.95769 12.9968 9.91644 11.9456 11.359 11.5H11.75H20.241ZM19.5132 10C19.4738 9.40871 19.3162 8.6834 18.9676 8.04844C18.4972 7.19168 17.6894 6.5 16.25 6.5C14.7011 6.5 13.8071 7.15647 13.2681 7.97498C12.8611 8.59302 12.6428 9.32968 12.5518 10H19.5132Z" fill="white"/>
</svg>
