<svg width="626" height="162" viewBox="0 0 626 162" fill="none" xmlns="http://www.w3.org/2000/svg">
    <path d="M2 45C6.78078 37.032 30.1766 30.875 38.1111 27C49.6829 21.3487 64.4353 10.3667 77.5556 8.99999C82.7273 8.46126 101.864 -2.58614 102 4.77777C102.459 29.5871 98 50.4443 98 74.7778C98 76.6112 95.4523 102.651 98.4444 104.556C102.711 107.271 119.778 85.2353 124 83C130.835 79.3814 140.047 72.064 145.556 66.5555C157.142 54.9691 157.441 63.1621 165.889 74.7778C175.895 88.5356 176.61 112.247 180.111 128C180.854 131.341 182.375 140.9 185 143C195.512 151.41 202.051 138.718 206.667 131.333C210.163 125.739 210.993 119.968 215.111 114.556C220.603 107.338 226.628 101.173 232.556 94.3333C236.377 89.9243 240.788 85.9895 244.889 81.8889C248.403 78.3751 247.436 79.2227 250.667 85C259.506 100.809 267.05 113.165 284.556 119.778C299.207 125.313 305.722 134.907 317.556 144.111C321.55 147.218 323.814 154.799 326 159.444C327.263 162.128 344.695 139.492 346.667 136.444C348.843 133.08 347.788 128.958 350 125.444C352.761 121.06 371.369 65.05 378.444 70.7778C392.23 81.9372 398.212 110.572 418.444 113C421.192 113.33 428.39 122.427 432 119.667C434.023 118.12 433.992 112.25 434.222 110.556C435.823 98.7525 438.327 87.0547 439.667 75.2222C440.596 67.0129 440.915 63.938 443.889 57C444.752 54.9856 445.414 49.3043 448 49C456.253 48.029 467.857 55.3145 475.444 57.8889C494.876 64.4817 517.339 80.934 529 97.7778C532.599 102.977 536.303 107.242 541 111C541.416 111.333 544 69.2873 544 59.8889C544 46.4788 541.216 28.8646 545 16C545.973 12.6923 544.644 6.67085 546.444 3.88888C550.82 -2.87403 587.531 23.5669 591.667 26.2222C599.825 31.46 610.349 37.1161 616 45.4444C619.048 49.9363 618.551 50.8204 624 53" stroke="url(#paint0_linear_2_163)" stroke-width="3" stroke-linecap="round"/>
    <defs>
        <linearGradient id="paint0_linear_2_163" x1="58" y1="25" x2="598" y2="57" gradientUnits="userSpaceOnUse">
            <stop stop-color="#6E23CB"/>
            <stop offset="1" stop-color="#6A147E"/>
        </linearGradient>
    </defs>
</svg>
