<svg width="32" height="32" viewBox="0 0 32 32" fill="currentColor" xmlns="http://www.w3.org/2000/svg">
    <path fill-rule="evenodd" clip-rule="evenodd" d="M20.3438 11.3438C20.3438 13.7427 18.399 15.6875 16 15.6875C13.601 15.6875 11.6562 13.7427 11.6562 11.3438C11.6562 8.94476 13.601 7 16 7C18.399 7 20.3438 8.94476 20.3438 11.3438ZM21.8438 11.3438C21.8438 14.5712 19.2274 17.1875 16 17.1875C12.7726 17.1875 10.1562 14.5712 10.1562 11.3438C10.1562 8.11634 12.7726 5.5 16 5.5C19.2274 5.5 21.8438 8.11634 21.8438 11.3438ZM9 23C9 21.8954 9.89543 21 11 21H21C22.1046 21 23 21.8954 23 23C23 24.1046 22.1046 25 21 25H11C9.89543 25 9 24.1046 9 23ZM7.5 23C7.5 21.067 9.067 19.5 11 19.5H21C22.933 19.5 24.5 21.067 24.5 23C24.5 24.933 22.933 26.5 21 26.5H11C9.067 26.5 7.5 24.933 7.5 23Z" fill="white"/>
</svg>
