<svg width="32" height="32" viewBox="0 0 32 32" fill="none" xmlns="http://www.w3.org/2000/svg">
    <path fill-rule="evenodd" clip-rule="evenodd" d="M21.0837 21.31C19.6415 22.6961 17.6823 23.5481 15.5241 23.5481C11.0925 23.5481 7.5 19.9556 7.5 15.5241C7.5 11.0925 11.0925 7.5 15.5241 7.5C19.9556 7.5 23.5481 11.0925 23.5481 15.5241C23.5481 17.6822 22.6961 19.6413 21.3102 21.0835C21.2657 21.112 21.2237 21.1457 21.1848 21.1846C21.1459 21.2234 21.1122 21.2655 21.0837 21.31ZM21.7076 22.768C20.0437 24.1897 17.8841 25.0481 15.5241 25.0481C10.2641 25.0481 6 20.7841 6 15.5241C6 10.2641 10.2641 6 15.5241 6C20.7841 6 25.0481 10.2641 25.0481 15.5241C25.0481 17.884 24.1898 20.0435 22.7682 21.7074L26.0551 24.9942C26.348 25.2871 26.348 25.762 26.0551 26.0549C25.7622 26.3478 25.2873 26.3478 24.9944 26.0549L21.7076 22.768Z" fill="white"/>
</svg>
